<svg xmlns="http://www.w3.org/2000/svg" width="1920" height="1080" viewBox="0 0 1920 1080"><rect width="1920" height="1080" fill="#302019"/><path d="M0 160 L0 160.0 L40 173.58335056408106 L80 186.5668892598841 L120 198.37729063539712 L160 208.49303248733602 L200 216.4674251723315 L240 221.9483364714436 L280 224.69374099994286 L320 224.582407533497 L360 221.61925232117107 L400 215.93512199432587 L440 207.781015657696 L480 197.51700130281557 L520 185.59631597139884 L560 172.54535177164183 L600 158.9404115223929 L640 145.38226044650452 L680 132.46959765645693 L720 120.77261887502146 L760 110.80783780498467 L800 103.01527798269001 L840 97.73904227463042 L880 95.2121180267922 L920 95.54608883903475 L960 98.72620727066615 L1000 104.61204605605536 L1040 112.94369907398485 L1080 123.35325824912724 L1120 135.38105959008828 L1160 148.49598097353305 L1200 162.11889536742228 L1240 175.64824384890844 L1280 188.4865991668151 L1320 200.06704685828413 L1360 209.87821898559292 L1400 217.48687505657315 L1440 222.55703300321522 L1480 224.86480543513682 L1520 224.3082860305198 L1560 220.91204950252072 L1600 214.8260664322096 L1640 206.31908088670662 L1680 195.7667432528137 L1720 183.63502231496494 L1760 170.45962906485028 L1800 156.82236084351376 L1840 143.32541040829136 L1880 130.56477438154926 L1920 119.10393530756167 L1960 109.4489794619179" fill="none" stroke="#ffbd80" opacity=".3" stroke-width="2"/><path d="M0 190 L0 244.69561401251326 L40 250.82710865679235 L80 254.2726075658323 L120 254.87996483660038 L160 252.6223608639063 L200 247.59948663712004 L240 240.03314159813047 L280 230.2574394497727 L320 218.70405440539153 L360 205.88315937377797 L400 192.3608978086866 L440 178.73438401814013 L480 165.6053358666865 L520 153.5535041943915 L560 143.11107225290795 L600 134.73915562506915 L640 128.80744034157303 L680 125.5778583322112 L720 125.19302106899526 L760 127.669922146896 L800 132.89918688283603 L840 140.6499020690477 L880 150.57981260916134 L920 162.2504347752631 L960 175.1464187166374 L1000 188.6983052129935 L1040 202.30767178235791 L1080 215.3735577449971 L1120 227.31900136875328 L1160 237.61651727190326 L1200 245.8113890556209 L1240 251.54174861293944 L1280 254.554555454639 L1320 254.71677043901778 L1360 252.02123049740692 L1400 246.58696494004687 L1440 238.65393937492962 L1480 228.57245933697166 L1520 216.78770154071418 L1560 203.82005582352656 L1600 190.24214583729076 L1640 176.65354320593937 L1680 163.65429171786965 L1720 151.81841066857817 L1760 141.668547389546 L1800 133.65289825378466 L1840 128.12541727734478 L1880 125.33018626285008 L1920 125.39063666627032 L1960 128.30409912637228" fill="none" stroke="#854224" opacity=".3" stroke-width="2"/><path d="M0 220 L0 279.1043327436693 L40 272.1467035690325 L80 262.88638688407036 L120 251.73229857632091 L160 239.17697946001462 L200 225.7748457213826 L240 212.11770707915045 L280 198.80863372617554 L320 186.43532603249815 L360 175.54416294707573 L400 166.61607506557894 L440 160.04530775825629 L480 156.12201213296825 L520 155.01943257943367 L560 156.78625666548126 L600 161.344465197616 L640 168.49277738265187 L680 177.9155389594026 L720 189.19666081943888 L760 201.83799261706983 L800 215.28132002901114 L840 228.9330143115455 L880 242.19024568315922 L920 254.46760300543787 L960 265.22294429373255 L1000 273.98133655403234 L1040 280.3560278137676 L1080 284.0655252662734 L1120 284.94602539437903 L1160 282.95864718530584 L1200 278.19114903348935 L1240 270.8540535165486 L1280 261.2713511660532 L1320 249.8661937347966 L1360 237.14220871546374 L1400 223.66126022180063 L1440 210.0186382644711 L1480 196.81677201040486 L1520 184.63862779219096 L1560 174.02196655483493 L1600 165.43559747627955 L1640 159.25867635129245 L1680 155.76396287805755 L1720 155.10577617007988 L1760 157.31318035237967 L1800 162.28870115155257 L1840 169.8126301523495 L1880 179.55272665396035 L1920 191.07888871266516 L1960 203.8821455288156" fill="none" stroke="#854224" opacity=".3" stroke-width="2"/><path d="M0 250 L0 259.1728005238914 L40 245.5228597067489 L80 232.07061988180044 L120 219.41010334596456 L160 208.1003715797574 L200 198.64083828147153 L240 191.4492163205433 L280 186.84307242573993 L320 185.02580411390136 L360 186.0776580882355 L400 189.95218671459463 L440 196.47829905020228 L480 205.36781585576492 L520 216.22819497770425 L560 228.57986517469766 L600 241.87740296361682 L640 255.53361736039338 L680 268.9454789848835 L720 281.5207485556136 L760 292.7041289167213 L800 302.0017857792058 L840 309.0031543927146 L880 313.39906921162157 L920 314.9954159879083 L960 313.72170344346284 L1000 309.634176014982 L1040 302.91333021928256 L1080 293.8559443110451 L1120 282.86197318635413 L1160 270.4168872252156 L1200 257.07023495220085 L1240 243.41137614252656 L1280 230.04345694798553 L1320 217.5567762458126 L1360 206.50271929586904 L1400 197.3694097403975 L1440 190.5601551022498 L1480 186.37563758253825 L1520 185.0006365742043 L1560 186.49586919706314 L1600 190.79530915894225 L1640 197.70910233630133 L1680 206.9319503284965 L1720 218.0565917857638 L1760 230.59178620415508 L1800 243.98400606129243 L1840 257.6418794143698 L1880 270.9623036272616 L1920 283.3570771000975 L1960 294.2788730007717" fill="none" stroke="#ffbd80" opacity=".3" stroke-width="2"/><path d="M0 280 L0 230.80783780498467 L40 223.01527798269 L80 217.73904227463044 L120 215.2121180267922 L160 215.54608883903475 L200 218.72620727066615 L240 224.61204605605536 L280 232.94369907398485 L320 243.35325824912724 L360 255.38105959008828 L400 268.495980973533 L440 282.1188953674223 L480 295.64824384890846 L520 308.4865991668151 L560 320.06704685828413 L600 329.8782189855929 L640 337.4868750565732 L680 342.5570330032152 L720 344.8648054351368 L760 344.3082860305198 L800 340.91204950252074 L840 334.82606643220953 L880 326.3190808867066 L920 315.7667432528138 L960 303.63502231496494 L1000 290.4596290648503 L1040 276.82236084351376 L1080 263.32541040829136 L1120 250.56477438154926 L1160 239.10393530756167 L1200 229.4489794619179 L1240 222.0262491580699 L1280 217.1635163776264 L1320 215.0755090568365 L1360 215.85442915766487 L1400 219.46588122527038 L1440 225.7503912181309 L1480 234.43044854250556 L1520 245.12276032997173 L1560 257.3551768352076 L1600 270.58754056445275 L1640 284.2355384814849 L1680 297.6965040284286 L1720 310.37602959904194 L1760 321.7142143142666 L1800 331.2103880541025 L1840 338.445219985151 L1880 343.0992353182747 L1920 344.96692263574283 L1960 343.9658088383033" fill="none" stroke="#854224" opacity=".3" stroke-width="2"/><path d="M0 310 L0 247.669922146896 L40 252.89918688283603 L80 260.6499020690477 L120 270.5798126091613 L160 282.2504347752631 L200 295.1464187166374 L240 308.6983052129935 L280 322.30767178235794 L320 335.37355774499713 L360 347.3190013687533 L400 357.6165172719032 L440 365.8113890556209 L480 371.54174861293944 L520 374.554555454639 L560 374.71677043901775 L600 372.0212304974069 L640 366.58696494004687 L680 358.65393937492956 L720 348.57245933697175 L760 336.7877015407142 L800 323.8200558235267 L840 310.24214583729065 L880 296.65354320593934 L920 283.65429171786974 L960 271.81841066857817 L1000 261.668547389546 L1040 253.65289825378466 L1080 248.12541727734478 L1120 245.33018626285008 L1160 245.39063666627032 L1200 248.30409912637228 L1240 253.94192133803375 L1280 262.05514906438634 L1320 272.2855194263746 L1360 284.1812810294474 L1400 297.21714234423797 L1440 310.81746746317344 L1480 324.38169495773957 L1520 337.3108573937317 L1560 349.03403045910966 L1600 359.0335437672247 L1640 366.8678400799778 L1680 372.1909735362331 L1720 374.76788588519867 L1760 374.48478615879696 L1800 371.3541754387752 L1840 365.5142948355258 L1880 357.22302105469873 L1920 346.84647911040025 L1960 334.8428750233401" fill="none" stroke="#854224" opacity=".3" stroke-width="2"/><path d="M0 340 L0 321.8379926170698 L40 335.28132002901117 L80 348.93301431154543 L120 362.1902456831592 L160 374.46760300543787 L200 385.22294429373255 L240 393.98133655403234 L280 400.3560278137676 L320 404.0655252662734 L360 404.94602539437903 L400 402.95864718530584 L440 398.19114903348935 L480 390.8540535165486 L520 381.2713511660532 L560 369.8661937347966 L600 357.1422087154637 L640 343.6612602218006 L680 330.018638264471 L720 316.816772010405 L760 304.63862779219096 L800 294.021966554835 L840 285.4355974762795 L880 279.2586763512925 L920 275.76396287805755 L960 275.1057761700799 L1000 277.3131803523797 L1040 282.2887011515526 L1080 289.81263015234947 L1120 299.55272665396035 L1160 311.07888871266516 L1200 323.8821455288156 L1240 337.39713251473427 L1280 351.027056592341 L1320 364.1700493060656 L1360 376.245744053633 L1400 386.72090384074477 L1440 395.1329678925187 L1480 401.1104773534122 L1520 404.3894781201666 L1560 404.82517649356066 L1600 402.398332960183 L1640 397.21611176842026 L1680 389.50734878319383 L1720 379.6124465809128 L1760 367.96834299575715 L1800 355.0892168743148 L1840 341.54378303140567 L1880 327.9301790135522 L1920 314.84955261720023 L1960 302.879516480706" fill="none" stroke="#ffbd80" opacity=".3" stroke-width="2"/><path d="M0 370 L0 412.7041289167213 L40 422.0017857792058 L80 429.0031543927145 L120 433.39906921162157 L160 434.9954159879083 L200 433.72170344346284 L240 429.634176014982 L280 422.91333021928256 L320 413.8559443110451 L360 402.86197318635413 L400 390.4168872252156 L440 377.07023495220085 L480 363.4113761425266 L520 350.04345694798553 L560 337.5567762458126 L600 326.50271929586904 L640 317.3694097403975 L680 310.5601551022498 L720 306.3756375825383 L760 305.0006365742043 L800 306.49586919706314 L840 310.7953091589423 L880 317.7091023363013 L920 326.9319503284964 L960 338.05659178576377 L1000 350.5917862041551 L1040 363.9840060612924 L1080 377.6418794143698 L1120 390.9623036272616 L1160 403.3570771000975 L1200 414.2788730007717 L1240 423.24540805364967 L1280 429.8607391431743 L1320 433.83274731965315 L1360 434.9860371507213 L1400 433.26968181055804 L1440 428.7594719001905 L1480 421.65456869576315 L1520 412.26870961021257 L1560 401.0163542164503 L1600 388.3943825942049 L1640 374.9601541625956 L1680 361.3068958737226 L1720 348.03750657229267 L1760 335.73793426504034 L1800 324.95130190309817 L1840 316.1539242277314 L1880 309.7342747245145 L1920 305.9758314605156 L1960 305.0445592958303" fill="none" stroke="#854224" opacity=".3" stroke-width="2"/><path d="M0 400 L0 464.3082860305198 L40 460.9120495025207 L80 454.8260664322096 L120 446.3190808867066 L160 435.7667432528138 L200 423.63502231496494 L240 410.4596290648503 L280 396.82236084351376 L320 383.32541040829136 L360 370.5647743815492 L400 359.10393530756164 L440 349.44897946191793 L480 342.0262491580699 L520 337.16351637762637 L560 335.0755090568365 L600 335.85442915766487 L640 339.4658812252704 L680 345.75039121813097 L720 354.4304485425055 L760 365.1227603299717 L800 377.3551768352075 L840 390.58754056445287 L880 404.2355384814849 L920 417.6965040284285 L960 430.37602959904194 L1000 441.7142143142666 L1040 451.2103880541025 L1080 458.445219985151 L1120 463.0992353182747 L1160 464.96692263574283 L1200 463.9658088383033 L1240 460.1401009818196 L1280 453.6587341877156 L1320 444.8079118273482 L1360 433.9784673899016 L1400 421.64860610683127 L1440 408.36278842601547 L1480 394.7076877964779 L1520 381.28628441677074 L1560 368.6912389119816 L1600 357.4787217011564 L1640 348.1438536946034 L1680 341.0988428076471 L1720 336.654781735879 L1760 335.00791076343387 L1800 336.23095220945777 L1840 340.2698991651797 L1880 346.94640032412644 L1920 355.96563559645216 L1960 366.92933473700583" fill="none" stroke="#854224" opacity=".3" stroke-width="2"/><path d="M0 430 L0 456.7877015407142 L40 443.82005582352656 L80 430.24214583729076 L120 416.65354320593934 L160 403.65429171786974 L200 391.81841066857817 L240 381.668547389546 L280 373.65289825378466 L320 368.1254172773448 L360 365.3301862628501 L400 365.3906366662703 L440 368.3040991263723 L480 373.94192133803375 L520 382.05514906438634 L560 392.2855194263746 L600 404.1812810294474 L640 417.21714234423797 L680 430.81746746317356 L720 444.38169495773946 L760 457.3108573937317 L800 469.03403045910954 L840 479.03354376722484 L880 486.8678400799778 L920 492.19097353623306 L960 494.76788588519867 L1000 494.48478615879696 L1040 491.3541754387752 L1080 485.5142948355258 L1120 477.22302105469873 L1160 466.84647911040025 L1200 454.8428750233401 L1240 441.74226241759015 L1280 428.1231364800023 L1320 414.5868888432519 L1360 401.73125141053714 L1400 390.12390178614595 L1440 380.2773958399366 L1480 372.6265343303627 L1520 367.5091630278288 L1560 365.15125416408756 L1600 365.6569279791429 L1640 369.0038549929217 L1680 375.04424202761743 L1720 383.511358440057 L1760 394.0313143795505 L1800 406.1395709684107 L1840 419.30145335068875 L1880 432.9357607965262 L1920 446.4404312901347 L1960 459.2191273077914" fill="none" stroke="#ffbd80" opacity=".3" stroke-width="2"/><path d="M0 460 L0 424.63862779219096 L40 414.02196655483493 L80 405.43559747627955 L120 399.2586763512925 L160 395.76396287805755 L200 395.1057761700799 L240 397.3131803523797 L280 402.2887011515526 L320 409.81263015234947 L360 419.55272665396035 L400 431.07888871266516 L440 443.8821455288156 L480 457.39713251473427 L520 471.027056592341 L560 484.1700493060656 L600 496.245744053633 L640 506.72090384074477 L680 515.1329678925188 L720 521.1104773534122 L760 524.3894781201666 L800 524.8251764935607 L840 522.398332960183 L880 517.2161117684203 L920 509.5073487831939 L960 499.6124465809128 L1000 487.96834299575715 L1040 475.0892168743148 L1080 461.54378303140567 L1120 447.9301790135522 L1160 434.84955261720023 L1200 422.879516480706 L1240 412.5486419388459 L1280 404.31311843697534 L1320 398.53660917546597 L1360 395.4741925163114 L1400 395.2610982652293 L1440 397.9067362110825 L1480 403.2942806096189 L1520 411.18582895984105 L1560 421.23290727241755 L1600 432.99185793982576 L1640 445.94343071261284 L1680 459.5157116859335 L1720 473.10937780109174 L1760 486.124161677016 L1800 497.9853581410006 L1840 508.16920198669885 L1880 516.2259963315544 L1920 521.7999702746008 L1960 524.644988982703" fill="none" stroke="#854224" opacity=".3" stroke-width="2"/><path d="M0 490 L0 425.0006365742043 L40 426.49586919706314 L80 430.79530915894225 L120 437.7091023363013 L160 446.9319503284964 L200 458.05659178576377 L240 470.5917862041551 L280 483.9840060612924 L320 497.6418794143698 L360 510.9623036272616 L400 523.3570771000975 L440 534.2788730007717 L480 543.2454080536497 L520 549.8607391431743 L560 553.8327473196531 L600 554.9860371507212 L640 553.269681810558 L680 548.7594719001904 L720 541.6545686957633 L760 532.2687096102126 L800 521.0163542164504 L840 508.3943825942048 L880 494.9601541625956 L920 481.30689587372274 L960 468.03750657229267 L1000 455.73793426504034 L1040 444.95130190309817 L1080 436.1539242277314 L1120 429.7342747245145 L1160 425.9758314605156 L1200 425.0445592958303 L1240 426.98158122837725 L1280 431.7013624897812 L1320 438.9954875788072 L1360 448.54186344658166 L1400 459.91894244051895 L1440 472.62433695200184 L1480 486.09700378456813 L1520 499.7420186280919 L1560 512.9568466508789 L1600 525.1579491562043 L1640 535.8065514099372 L1680 544.4324337867923 L1720 550.654695668796 L1760 554.1985752063772 L1800 554.9075822172088 L1840 552.7504084597944 L1880 547.8223101388186 L1920 540.3409015937639 L1960 530.6365459125584" fill="none" stroke="#854224" opacity=".3" stroke-width="2"/><path d="M0 520 L0 485.1227603299717 L40 497.3551768352076 L80 510.58754056445275 L120 524.2355384814849 L160 537.6965040284285 L200 550.3760295990419 L240 561.7142143142667 L280 571.2103880541025 L320 578.4452199851511 L360 583.0992353182746 L400 584.9669226357428 L440 583.9658088383032 L480 580.1401009818196 L520 573.6587341877156 L560 564.8079118273482 L600 553.9784673899015 L640 541.6486061068313 L680 528.3627884260153 L720 514.707687796478 L760 501.28628441677074 L800 488.6912389119816 L840 477.47872170115625 L880 468.1438536946034 L920 461.0988428076472 L960 456.654781735879 L1000 455.00791076343387 L1040 456.23095220945777 L1080 460.2698991651797 L1120 466.94640032412644 L1160 475.96563559645216 L1200 486.92933473700583 L1240 499.35336411221044 L1280 512.6891050115406 L1320 526.3476794828327 L1360 539.7259539300723 L1400 552.2331722100911 L1440 563.3170421672751 L1480 572.4881236803961 L1520 579.3414412972958 L1560 583.5743670894448 L1600 584.9999840575582 L1640 583.5553399887003 L1680 579.304227292104 L1720 572.4343660620697 L1760 563.2491147578936 L1800 552.154074539567 L1840 539.6391787832902 L1880 526.2570586656984 L1920 512.5986401465827 L1960 499.2670499354407" fill="none" stroke="#ffbd80" opacity=".3" stroke-width="2"/><path d="M0 550 L0 577.3108573937317 L40 589.0340304591097 L80 599.0335437672247 L120 606.8678400799778 L160 612.1909735362331 L200 614.7678858851987 L240 614.484786158797 L280 611.3541754387752 L320 605.5142948355258 L360 597.2230210546987 L400 586.8464791104003 L440 574.8428750233401 L480 561.7422624175902 L520 548.1231364800022 L560 534.5868888432519 L600 521.7312514105371 L640 510.12390178614595 L680 500.2773958399366 L720 492.6265343303627 L760 487.5091630278288 L800 485.15125416408756 L840 485.6569279791429 L880 489.0038549929217 L920 495.0442420276173 L960 503.511358440057 L1000 514.0313143795505 L1040 526.1395709684107 L1080 539.3014533506887 L1120 552.9357607965262 L1160 566.4404312901347 L1200 579.2191273077914 L1240 590.7075688144375 L1280 600.3984506697699 L1320 607.8638441441656 L1360 612.7740933411519 L1400 614.9123721005951 L1440 614.1842585807304 L1480 610.6219047258522 L1520 604.3826165048437 L1560 595.7419076141903 L1600 585.0813333791777 L1640 572.8716420823195 L1680 559.6519877205117 L1720 546.0061221113448 L1760 532.5366176545142 L1800 519.8382590163593 L1840 508.4717787041423 L1880 498.9390963112396 L1920 491.66115481551356 L1960 486.9593326327808" fill="none" stroke="#854224" opacity=".3" stroke-width="2"/><path d="M0 580 L0 644.3894781201666 L40 644.8251764935607 L80 642.398332960183 L120 637.2161117684203 L160 629.5073487831938 L200 619.6124465809128 L240 607.9683429957572 L280 595.0892168743147 L320 581.5437830314056 L360 567.9301790135522 L400 554.8495526172002 L440 542.879516480706 L480 532.5486419388459 L520 524.3131184369753 L560 518.536609175466 L600 515.4741925163114 L640 515.2610982652293 L680 517.9067362110825 L720 523.2942806096189 L760 531.185828959841 L800 541.2329072724176 L840 552.991857939826 L880 565.9434307126129 L920 579.5157116859333 L960 593.1093778010917 L1000 606.124161677016 L1040 617.9853581410006 L1080 628.1692019866989 L1120 636.2259963315544 L1160 641.7999702746008 L1200 644.644988982703 L1240 644.6354224812428 L1280 641.7716932065761 L1320 636.180257352142 L1360 628.10802083194 L1400 617.9114364405534 L1440 606.0407636559362 L1480 593.0201861385971 L1520 579.4246648961238 L1560 565.8545492280641 L1600 552.9090665778391 L1640 541.1598619234356 L1680 531.125755151103 L1720 523.249831072738 L1760 517.8798737430606 L1800 515.2530090555158 L1840 515.4852337672012 L1880 518.5662933288052 L1920 524.3601347036924 L1960 532.6109141806094" fill="none" stroke="#854224" opacity=".3" stroke-width="2"/><path d="M0 610 L0 652.2687096102126 L40 641.0163542164503 L80 628.3943825942049 L120 614.9601541625956 L160 601.3068958737227 L200 588.0375065722926 L240 575.7379342650403 L280 564.9513019030982 L320 556.1539242277314 L360 549.7342747245144 L400 545.9758314605157 L440 545.0445592958304 L480 546.9815812283772 L520 551.7013624897812 L560 558.9954875788071 L600 568.5418634465816 L640 579.918942440519 L680 592.6243369520018 L720 606.0970037845682 L760 619.742018628092 L800 632.9568466508789 L840 645.1579491562045 L880 655.8065514099372 L920 664.4324337867922 L960 670.654695668796 L1000 674.1985752063772 L1040 674.9075822172088 L1080 672.7504084597944 L1120 667.8223101388186 L1160 660.3409015937639 L1200 650.6365459125584 L1240 639.1377668003162 L1280 626.3523258840148 L1320 612.84480103909 L1360 599.2116558313476 L1400 586.0549009546138 L1440 573.9555107190087 L1480 563.4477684611805 L1520 554.995673728614 L1560 548.9724530465672 L1600 545.6440790285947 L1640 545.1575255916712 L1680 547.5342779006421 L1720 552.669383629043 L1760 560.3360874305971 L1800 570.195843972984 L1840 581.8132673796073 L1880 594.6753569438133 L1920 608.2141501489111 L1960 621.8318026848194" fill="none" stroke="#ffbd80" opacity=".3" stroke-width="2"/><path d="M0 640 L0 621.2862844167707 L40 608.6912389119816 L80 597.4787217011562 L120 588.1438536946034 L160 581.0988428076472 L200 576.6547817358789 L240 575.0079107634339 L280 576.2309522094578 L320 580.2698991651797 L360 586.9464003241264 L400 595.9656355964522 L440 606.9293347370058 L480 619.3533641122104 L520 632.6891050115406 L560 646.3476794828327 L600 659.7259539300723 L640 672.2331722100911 L680 683.3170421672751 L720 692.4881236803961 L760 699.3414412972958 L800 703.5743670894448 L840 704.9999840575582 L880 703.5553399887003 L920 699.3042272921041 L960 692.4343660620697 L1000 683.2491147578936 L1040 672.154074539567 L1080 659.6391787832902 L1120 646.2570586656984 L1160 632.5986401465827 L1200 619.2670499354407 L1240 606.8509826988751 L1280 595.8987055563049 L1320 586.8938477701709 L1360 580.234044706416 L1400 576.2133791025202 L1440 575.0093949993458 L1480 576.6752577739396 L1520 581.1374064695694 L1560 588.1988020911042 L1600 597.5476284279248 L1640 608.7710611945326 L1680 621.373497472894 L1720 634.7984404831224 L1760 648.4530732975753 L1800 661.7344363754202 L1840 674.056052973425 L1880 684.8738267114672 L1920 693.7100677113524 L1960 700.1745863657601" fill="none" stroke="#854224" opacity=".3" stroke-width="2"/><path d="M0 670 L0 607.5091630278288 L40 605.1512541640875 L80 605.6569279791429 L120 609.0038549929217 L160 615.0442420276173 L200 623.511358440057 L240 634.0313143795505 L280 646.1395709684107 L320 659.3014533506887 L360 672.9357607965262 L400 686.4404312901347 L440 699.2191273077914 L480 710.7075688144375 L520 720.3984506697699 L560 727.8638441441656 L600 732.7740933411519 L640 734.9123721005951 L680 734.1842585807304 L720 730.6219047258522 L760 724.3826165048437 L800 715.7419076141903 L840 705.0813333791775 L880 692.8716420823195 L920 679.6519877205119 L960 666.0061221113448 L1000 652.5366176545142 L1040 639.8382590163593 L1080 628.4717787041423 L1120 618.9390963112396 L1160 611.6611548155136 L1200 606.9593326327808 L1240 605.0412522295626 L1280 605.9916119565886 L1320 609.7684459497877 L1360 616.2049772535812 L1400 625.0169823364959 L1440 635.8153417977535 L1480 648.1232230523275 L1520 661.3971362436448 L1560 675.0509335996162 L1600 688.4816924714786 L1640 701.0963391155107 L1680 712.3378375680497 L1720 721.7097871687984 L1760 728.7983425581076 L1800 733.2904882077838 L1840 734.9878605210108 L1880 733.8155071468528 L1920 729.8251967166441 L1960 723.193132851344" fill="none" stroke="#854224" opacity=".3" stroke-width="2"/><path d="M0 700 L0 651.185828959841 L40 661.2329072724176 L80 672.991857939826 L120 685.9434307126129 L160 699.5157116859333 L200 713.1093778010917 L240 726.124161677016 L280 737.9853581410006 L320 748.1692019866989 L360 756.2259963315544 L400 761.7999702746008 L440 764.644988982703 L480 764.6354224812428 L520 761.7716932065761 L560 756.180257352142 L600 748.10802083194 L640 737.9114364405534 L680 726.0407636559362 L720 713.0201861385971 L760 699.4246648961238 L800 685.8545492280641 L840 672.909066577839 L880 661.1598619234356 L920 651.1257551511031 L960 643.249831072738 L1000 637.8798737430606 L1040 635.2530090555158 L1080 635.4852337672012 L1120 638.5662933288052 L1160 644.3601347036924 L1200 652.6109141806094 L1240 662.9542948877764 L1280 674.9335351341795 L1320 688.0196571511268 L1360 701.6348056253458 L1400 715.1777645604827 L1440 728.0505056966782 L1480 739.6845961664795 L1520 749.5662992811742 L1560 757.2592600502148 L1600 762.4237736894468 L1640 764.8317862618035 L1680 764.376965054082 L1720 761.0793940033826 L1760 755.0846868331653 L1800 746.6575570609516 L1840 736.1701288124533 L1880 724.0855046117114 L1920 710.9373157586833 L1960 697.3061583061028" fill="none" stroke="#ffbd80" opacity=".3" stroke-width="2"/><path d="M0 730 L0 739.742018628092 L40 752.9568466508789 L80 765.1579491562045 L120 775.8065514099372 L160 784.4324337867922 L200 790.654695668796 L240 794.1985752063772 L280 794.9075822172088 L320 792.7504084597944 L360 787.8223101388186 L400 780.3409015937639 L440 770.6365459125584 L480 759.1377668003162 L520 746.3523258840148 L560 732.84480103909 L600 719.2116558313476 L640 706.0549009546138 L680 693.9555107190087 L720 683.4477684611805 L760 674.995673728614 L800 668.9724530465672 L840 665.6440790285947 L880 665.1575255916712 L920 667.534277900642 L960 672.669383629043 L1000 680.3360874305971 L1040 690.195843972984 L1080 701.8132673796073 L1120 714.6753569438133 L1160 728.2141501489111 L1200 741.8318026848194 L1240 754.9269879811463 L1280 766.9214505094803 L1320 777.2855403175381 L1360 785.5616012444599 L1400 791.3841800434092 L1440 794.4961640196118 L1480 794.7601345800622 L1520 792.1644353462927 L1560 786.8236868752527 L1600 778.9737252593193 L1640 768.9611881060949 L1680 757.2282077589766 L1720 744.2928876733141 L1760 730.7264240698595 L1800 717.1278831246291 L1840 704.0977474808216 L1880 692.2114002125579 L1920 681.993717132205 L1960 673.8958893909432" fill="none" stroke="#854224" opacity=".3" stroke-width="2"/><path d="M0 760 L0 819.3414412972958 L40 823.5743670894448 L80 824.9999840575582 L120 823.5553399887003 L160 819.3042272921041 L200 812.4343660620697 L240 803.2491147578936 L280 792.154074539567 L320 779.6391787832902 L360 766.2570586656984 L400 752.5986401465827 L440 739.2670499354407 L480 726.8509826988751 L520 715.8987055563049 L560 706.8938477701709 L600 700.234044706416 L640 696.2133791025202 L680 695.0093949993458 L720 696.6752577739396 L760 701.1374064695694 L800 708.1988020911042 L840 717.5476284279249 L880 728.7710611945326 L920 741.3734974728937 L960 754.7984404831224 L1000 768.4530732975753 L1040 781.7344363754202 L1080 794.056052973425 L1120 804.8738267114672 L1160 813.7100677113524 L1200 820.1745863657601 L1240 823.9819232813452 L1280 824.9639545583577 L1320 823.0773157844467 L1360 818.4053169148698 L1400 811.1542634820754 L1440 801.6443465822138 L1480 790.2955039173978 L1520 777.6088762400115 L1560 764.1446780430417 L1600 750.4974596796792 L1640 737.2698532843674 L1680 725.0459618195816 L1720 714.3655663314292 L1760 705.7002903668011 L1800 699.4327740807141 L1840 695.8397776609647 L1880 695.0799601869221 L1920 697.186873582061 L1960 702.0674810323881" fill="none" stroke="#854224" opacity=".3" stroke-width="2"/><path d="M0 790 L0 844.3826165048437 L40 835.7419076141903 L80 825.0813333791775 L120 812.8716420823195 L160 799.6519877205119 L200 786.0061221113448 L240 772.5366176545142 L280 759.8382590163593 L320 748.4717787041423 L360 738.9390963112396 L400 731.6611548155136 L440 726.9593326327808 L480 725.0412522295626 L520 725.9916119565886 L560 729.7684459497877 L600 736.2049772535812 L640 745.0169823364959 L680 755.8153417977535 L720 768.1232230523275 L760 781.3971362436448 L800 795.0509335996162 L840 808.4816924714788 L880 821.0963391155107 L920 832.3378375680496 L960 841.7097871687984 L1000 848.7983425581076 L1040 853.2904882077838 L1080 854.9878605210108 L1120 853.8155071468528 L1160 849.8251967166441 L1200 843.193132851344 L1240 834.212173384432 L1280 823.2788983829072 L1320 810.8760980150806 L1360 797.5514535636673 L1400 783.8933529852942 L1440 770.5049089498724 L1480 757.9773266679524 L1520 746.8637975261571 L1560 737.6550713322201 L1600 730.7577858473321 L1640 726.4765105275502 L1680 725.0002973844573 L1720 726.3943328504549 L1760 730.5970592845649 L1800 737.4228932269175 L1840 746.570420369592 L1880 757.6357053713273 L1920 770.1301287829962 L1960 783.5019634431559" fill="none" stroke="#ffbd80" opacity=".3" stroke-width="2"/><path d="M0 820 L0 819.4246648961238 L40 805.8545492280641 L80 792.909066577839 L120 781.1598619234356 L160 771.1257551511031 L200 763.249831072738 L240 757.8798737430606 L280 755.2530090555158 L320 755.4852337672012 L360 758.5662933288052 L400 764.3601347036924 L440 772.6109141806094 L480 782.9542948877764 L520 794.9335351341795 L560 808.0196571511268 L600 821.6348056253458 L640 835.1777645604827 L680 848.0505056966782 L720 859.6845961664795 L760 869.5662992811742 L800 877.2592600502148 L840 882.4237736894468 L880 884.8317862618035 L920 884.3769650540821 L960 881.0793940033826 L1000 875.0846868331653 L1040 866.6575570609516 L1080 856.1701288124533 L1120 844.0855046117114 L1160 830.9373157586833 L1200 817.3061583061028 L1240 803.7939551727561 L1280 790.9973765077148 L1320 779.481492005708 L1360 769.7548186313414 L1400 762.246865591588 L1440 757.2891681227997 L1480 755.1006475998672 L1520 755.777944433964 L1560 759.2911506375489 L1600 765.4851304974795 L1640 774.0863710381224 L1680 784.7150597725762 L1720 796.9018564142096 L1760 810.1086179454029 L1800 823.7521618685421 L1840 837.2300183046483 L1880 849.9470337817423 L1920 861.3416519462389 L1960 870.9107106970553" fill="none" stroke="#854224" opacity=".3" stroke-width="2"/><path d="M0 850 L0 794.995673728614 L40 788.9724530465672 L80 785.6440790285947 L120 785.1575255916712 L160 787.534277900642 L200 792.669383629043 L240 800.3360874305971 L280 810.195843972984 L320 821.8132673796073 L360 834.6753569438133 L400 848.2141501489111 L440 861.8318026848194 L480 874.9269879811463 L520 886.9214505094803 L560 897.2855403175381 L600 905.5616012444599 L640 911.3841800434092 L680 914.4961640196118 L720 914.7601345800622 L760 912.1644353462927 L800 906.8236868752527 L840 898.9737252593192 L880 888.9611881060949 L920 877.2282077589769 L960 864.2928876733141 L1000 850.7264240698595 L1040 837.1278831246291 L1080 824.0977474808216 L1120 812.2114002125579 L1160 801.993717132205 L1200 793.8958893909432 L1240 788.2754998372434 L1280 785.3807329188785 L1320 785.3394153856141 L1360 788.1533717318345 L1400 793.6983436307505 L1440 801.7294769178064 L1480 811.8921338297662 L1520 823.7375530540007 L1560 836.742666073512 L1600 850.3331947600428 L1640 863.9090102746964 L1680 876.8706334809496 L1720 888.6457066681932 L1760 898.714267650792 L1800 906.6317101922101 L1840 912.0484168707115 L1880 914.7251974410457 L1920 914.5438509669054 L1960 911.5123853228536" fill="none" stroke="#854224" opacity=".3" stroke-width="2"/><path d="M0 880 L0 821.1374064695694 L40 828.1988020911042 L80 837.5476284279249 L120 848.7710611945326 L160 861.3734974728937 L200 874.7984404831224 L240 888.4530732975753 L280 901.7344363754202 L320 914.056052973425 L360 924.8738267114672 L400 933.7100677113524 L440 940.1745863657601 L480 943.9819232813452 L520 944.9639545583577 L560 943.0773157844467 L600 938.4053169148698 L640 931.1542634820754 L680 921.6443465822138 L720 910.2955039173978 L760 897.6088762400115 L800 884.1446780430417 L840 870.497459679679 L880 857.2698532843674 L920 845.0459618195819 L960 834.3655663314292 L1000 825.7002903668011 L1040 819.4327740807141 L1080 815.8397776609647 L1120 815.0799601869221 L1160 817.186873582061 L1200 822.0674810323881 L1240 829.5062652942523 L1280 839.174745477407 L1320 850.6459820624227 L1360 863.4134296417395 L1400 876.9133048874098 L1440 890.5494820236594 L1480 903.7198164731492 L1520 915.8427342807099 L1560 926.3829131821605 L1600 934.8749212968291 L1640 940.9437696094019 L1680 944.3214706872132 L1720 944.8588724352475 L1760 942.5322443353983 L1800 937.4443253356726 L1840 929.8197871167778 L1880 919.9953130685931 L1920 908.4047310678183 L1960 895.5598565617194" fill="none" stroke="#ffbd80" opacity=".3" stroke-width="2"/><path d="M0 910 L0 901.3971362436448 L40 915.0509335996162 L80 928.4816924714788 L120 941.0963391155107 L160 952.3378375680496 L200 961.7097871687984 L240 968.7983425581076 L280 973.2904882077838 L320 974.9878605210108 L360 973.8155071468528 L400 969.8251967166441 L440 963.193132851344 L480 954.212173384432 L520 943.2788983829072 L560 930.8760980150806 L600 917.5514535636673 L640 903.8933529852942 L680 890.5049089498724 L720 877.9773266679524 L760 866.8637975261571 L800 857.6550713322201 L840 850.757785847332 L880 846.4765105275502 L920 845.0002973844573 L960 846.3943328504549 L1000 850.5970592845649 L1040 857.4228932269175 L1080 866.570420369592 L1120 877.6357053713273 L1160 890.1301287829962 L1200 903.5019634431559 L1240 917.1607375759376 L1280 930.5033087687001 L1320 942.9404974580503 L1360 953.9231038461409 L1400 962.9661593955606 L1440 969.6703420083891 L1480 973.739609240657 L1520 974.9942709069724 L1560 973.378923816894 L1600 968.964898261976 L1640 961.9471082218164 L1680 952.6354443773129 L1720 941.4410899973502 L1760 928.8583639602593 L1800 915.4428926835969 L1840 901.7870748433982 L1880 888.4939223087122 L1920 876.1504324201078 L1960 865.3016674356953" fill="none" stroke="#854224" opacity=".3" stroke-width="2"/><path d="M0 940 L0 989.5662992811742 L40 997.2592600502148 L80 1002.4237736894468 L120 1004.8317862618035 L160 1004.3769650540821 L200 1001.0793940033826 L240 995.0846868331653 L280 986.6575570609516 L320 976.1701288124533 L360 964.0855046117114 L400 950.9373157586833 L440 937.3061583061028 L480 923.7939551727561 L520 910.9973765077148 L560 899.481492005708 L600 889.7548186313414 L640 882.246865591588 L680 877.2891681227997 L720 875.1006475998672 L760 875.777944433964 L800 879.2911506375489 L840 885.4851304974796 L880 894.0863710381224 L920 904.7150597725761 L960 916.9018564142096 L1000 930.1086179454029 L1040 943.7521618685421 L1080 957.2300183046483 L1120 969.9470337817423 L1160 981.3416519462389 L1200 990.9107106970553 L1240 998.231660753739 L1280 1002.9812245339033 L1320 1004.9496714036337 L1360 1004.050078936172 L1400 1000.322171221392 L1440 993.9305647344866 L1480 985.1574992225732 L1520 974.3903745978016 L1560 962.1046441812575 L1600 948.8428196956228 L1640 935.1905151014565 L1680 921.7505871303367 L1720 909.1165144139046 L1760 897.8461907298591 L1800 888.4372895994078 L1840 881.3052880831534 L1880 876.7651201978426 L1920 875.0172701000713 L1960 876.1389191323711" fill="none" stroke="#854224" opacity=".3" stroke-width="2"/><path d="M0 970 L0 1032.1644353462927 L40 1026.8236868752529 L80 1018.9737252593192 L120 1008.9611881060949 L160 997.2282077589769 L200 984.2928876733141 L240 970.7264240698595 L280 957.1278831246291 L320 944.0977474808216 L360 932.2114002125579 L400 921.993717132205 L440 913.8958893909432 L480 908.2754998372434 L520 905.3807329188785 L560 905.3394153856141 L600 908.1533717318345 L640 913.6983436307505 L680 921.7294769178064 L720 931.8921338297662 L760 943.7375530540007 L800 956.742666073512 L840 970.333194760043 L880 983.9090102746964 L920 996.8706334809494 L960 1008.6457066681932 L1000 1018.714267650792 L1040 1026.6317101922102 L1080 1032.0484168707114 L1120 1034.7251974410458 L1160 1034.5438509669054 L1200 1031.5123853228536 L1240 1025.7646635836154 L1280 1017.5544929154339 L1320 1007.2444169914721 L1360 995.2897068343593 L1400 982.2182570162212 L1440 968.6072749572392 L1480 955.057792673733 L1520 942.1681264827502 L1560 930.5074566261624 L1600 920.5906934818663 L1640 912.8557402167415 L1680 907.6441559142496 L1720 905.1860730518242 L1760 905.590035340175 L1800 908.838204663901 L1840 914.787148774725 L1880 923.1741749544873 L1920 933.6289299668164 L1960 945.6897540682814" fill="none" stroke="#ffbd80" opacity=".3" stroke-width="2"/><path d="M0 1000 L0 1017.6088762400115 L40 1004.1446780430417 L80 990.497459679679 L120 977.2698532843674 L160 965.0459618195819 L200 954.3655663314292 L240 945.7002903668011 L280 939.4327740807141 L320 935.8397776609647 L360 935.0799601869221 L400 937.186873582061 L440 942.0674810323881 L480 949.5062652942523 L520 959.174745477407 L560 970.6459820624227 L600 983.4134296417395 L640 996.9133048874098 L680 1010.5494820236594 L720 1023.7198164731492 L760 1035.84273428071 L800 1046.3829131821603 L840 1054.8749212968291 L880 1060.943769609402 L920 1064.3214706872132 L960 1064.8588724352473 L1000 1062.5322443353984 L1040 1057.4443253356726 L1080 1049.8197871167777 L1120 1039.995313068593 L1160 1028.4047310678181 L1200 1015.5598565617194 L1240 1002.0278918866379 L1280 988.4063798192948 L1320 975.2968173587801 L1360 963.2780948984952 L1400 952.8809336577158 L1440 944.5644501614254 L1480 938.6958826311431 L1520 935.5343745261974 L1560 935.2195313197785 L1600 937.7652558181906 L1640 943.0591342424983 L1680 950.8674001818929 L1720 960.8452572211582 L1760 972.5521044169631 L1800 985.4709922983332 L1840 999.0314502557054 L1880 1012.6346773096201 L1920 1025.679983888287 L1960 1037.5913170013707" fill="none" stroke="#854224" opacity=".3" stroke-width="2"/><path d="M0 1030 L0 986.8637975261571 L40 977.6550713322201 L80 970.757785847332 L120 966.4765105275502 L160 965.0002973844573 L200 966.3943328504549 L240 970.5970592845649 L280 977.4228932269175 L320 986.570420369592 L360 997.6357053713273 L400 1010.1301287829962 L440 1023.5019634431559 L480 1037.1607375759374 L520 1050.5033087687002 L560 1062.9404974580505 L600 1073.9231038461407 L640 1082.9661593955605 L680 1089.670342008389 L720 1093.739609240657 L760 1094.9942709069724 L800 1093.378923816894 L840 1088.964898261976 L880 1081.9471082218165 L920 1072.635444377313 L960 1061.4410899973502 L1000 1048.8583639602593 L1040 1035.442892683597 L1080 1021.7870748433982 L1120 1008.4939223087122 L1160 996.1504324201078 L1200 985.3016674356953 L1240 976.4266857411882 L1280 969.9173876505773 L1320 966.0612099218621 L1360 965.0284331612127 L1400 966.8646625935987 L1440 971.4888142330608 L1480 978.696695379058 L1520 988.170021331795 L1560 999.4904701675526 L1600 1012.1581549450428 L1640 1025.6136976494458 L1680 1039.2629301357108 L1720 1052.5031313300117 L1760 1064.7496421103397 L1800 1075.4616826097258 L1840 1084.1662319048942 L1880 1090.478915614088 L1920 1094.1209790521802 L1960 1094.93159644464" fill="none" stroke="#854224" opacity=".3" stroke-width="2"/><path d="M0 1060 L0 995.777944433964 L40 999.2911506375489 L80 1005.4851304974796 L120 1014.0863710381224 L160 1024.715059772576 L200 1036.9018564142095 L240 1050.1086179454028 L280 1063.752161868542 L320 1077.2300183046482 L360 1089.9470337817424 L400 1101.341651946239 L440 1110.9107106970553 L480 1118.231660753739 L520 1122.9812245339033 L560 1124.9496714036336 L600 1124.050078936172 L640 1120.322171221392 L680 1113.9305647344866 L720 1105.1574992225733 L760 1094.3903745978016 L800 1082.1046441812575 L840 1068.8428196956227 L880 1055.1905151014564 L920 1041.7505871303367 L960 1029.1165144139047 L1000 1017.8461907298591 L1040 1008.4372895994078 L1080 1001.3052880831534 L1120 996.7651201978426 L1160 995.0172701000713 L1200 996.1389191323711 L1240 1000.080537659293 L1280 1006.6680721907559 L1320 1015.6106312139461 L1360 1026.5133303437792 L1400 1038.894729577401 L1440 1052.208092660662 L1480 1065.8655297981559 L1520 1079.26395761611 L1560 1091.8117300413733 L1600 1102.9547641335387 L1640 1112.2010072090231 L1680 1119.142164840947 L1720 1123.4717302725594 L1760 1124.998519103655 L1800 1123.6551115870277 L1840 1119.5008297411 L1880 1112.7191178157725 L1920 1103.609441784544 L1960 1092.5740655641064" fill="none" stroke="#ffbd80" opacity=".3" stroke-width="2"/><path d="M0 1090 L0 1063.7375530540007 L40 1076.742666073512 L80 1090.3331947600432 L120 1103.9090102746964 L160 1116.8706334809494 L200 1128.6457066681933 L240 1138.714267650792 L280 1146.6317101922102 L320 1152.0484168707114 L360 1154.7251974410458 L400 1154.5438509669054 L440 1151.5123853228536 L480 1145.7646635836154 L520 1137.554492915434 L560 1127.2444169914722 L600 1115.2897068343593 L640 1102.218257016221 L680 1088.607274957239 L720 1075.057792673733 L760 1062.1681264827503 L800 1050.5074566261624 L840 1040.5906934818663 L880 1032.8557402167414 L920 1027.6441559142495 L960 1025.1860730518242 L1000 1025.5900353401748 L1040 1028.838204663901 L1080 1034.787148774725 L1120 1043.1741749544872 L1160 1053.6289299668163 L1200 1065.6897540682814 L1240 1078.8240669206855 L1280 1092.4518852059673 L1320 1105.9714334558657 L1360 1118.7857171765859 L1400 1130.3288848557995 L1440 1140.0912147618287 L1480 1147.6416231711057 L1520 1152.6467001084657 L1560 1154.8854320224648 L1600 1154.258961273703 L1640 1150.7949514779034 L1680 1144.646365939484 L1720 1136.0847131173973 L1760 1125.4880573890987 L1800 1113.3243245318038 L1840 1100.1306391154737 L1880 1086.4896062243042 L1920 1073.003584855443 L1960 1060.2680890269332" fill="none" stroke="#854224" opacity=".3" stroke-width="2"/><path d="M0 1120 L0 1155.84273428071 L40 1166.3829131821603 L80 1174.8749212968291 L120 1180.9437696094017 L160 1184.3214706872132 L200 1184.8588724352473 L240 1182.5322443353984 L280 1177.4443253356726 L320 1169.8197871167777 L360 1159.995313068593 L400 1148.4047310678181 L440 1135.5598565617192 L480 1122.027891886638 L520 1108.406379819295 L560 1095.2968173587801 L600 1083.2780948984953 L640 1072.8809336577158 L680 1064.5644501614254 L720 1058.6958826311431 L760 1055.5343745261976 L800 1055.2195313197785 L840 1057.7652558181906 L880 1063.0591342424984 L920 1070.867400181893 L960 1080.8452572211584 L1000 1092.5521044169632 L1040 1105.4709922983332 L1080 1119.0314502557053 L1120 1132.6346773096202 L1160 1145.679983888287 L1200 1157.5913170013707 L1240 1167.8426975147438 L1280 1175.9814462702602 L1320 1181.6481734345014 L1360 1184.5926483893757 L1400 1184.6848493839573 L1440 1181.9207050184425 L1480 1176.4222740285059 L1520 1168.4323554311577 L1560 1158.3037670366032 L1600 1146.4837657642079 L1640 1133.4942977282826 L1680 1119.9089502078875 L1720 1106.3276232526434 L1760 1093.3500393725667 L1800 1081.5492610676731 L1840 1071.4463856069167 L1880 1063.4875344812 L1920 1058.0241536272633 L1960 1055.2974943226652" fill="none" stroke="#854224" opacity=".3" stroke-width="2"/><path d="M0 1150 L0 1214.9942709069724 L40 1213.378923816894 L80 1208.964898261976 L120 1201.9471082218167 L160 1192.635444377313 L200 1181.4410899973502 L240 1168.8583639602593 L280 1155.442892683597 L320 1141.7870748433982 L360 1128.4939223087122 L400 1116.1504324201078 L440 1105.3016674356954 L480 1096.426685741188 L520 1089.9173876505772 L560 1086.061209921862 L600 1085.0284331612127 L640 1086.8646625935987 L680 1091.4888142330608 L720 1098.6966953790582 L760 1108.170021331795 L800 1119.4904701675525 L840 1132.1581549450427 L880 1145.6136976494458 L920 1159.2629301357108 L960 1172.5031313300117 L1000 1184.7496421103397 L1040 1195.4616826097258 L1080 1204.1662319048942 L1120 1210.478915614088 L1160 1214.1209790521802 L1200 1214.93159644464 L1240 1212.8749726516503 L1280 1208.0419238053428 L1320 1200.6458670625746 L1360 1191.0133965572336 L1400 1179.5698616979714 L1440 1166.8205846430621 L1480 1153.3285463487457 L1520 1139.689526527694 L1560 1126.5057952841605 L1600 1114.3595181472433 L1640 1103.7870488794213 L1680 1095.2552452352618 L1720 1089.1408535160133 L1760 1085.7138722543066 L1800 1085.125629653256 L1840 1087.4021012548956 L1880 1092.4427629154932 L1920 1100.0250297379184 L1960 1109.8140849472459" fill="none" stroke="#ffbd80" opacity=".3" stroke-width="2"/><path d="M0 1180 L0 1214.3903745978016 L40 1202.1046441812575 L80 1188.8428196956227 L120 1175.1905151014569 L160 1161.7505871303367 L200 1149.1165144139047 L240 1137.846190729859 L280 1128.437289599408 L320 1121.3052880831535 L360 1116.7651201978426 L400 1115.0172701000713 L440 1116.1389191323713 L480 1120.080537659293 L520 1126.668072190756 L560 1135.6106312139461 L600 1146.5133303437792 L640 1158.894729577401 L680 1172.208092660662 L720 1185.8655297981559 L760 1199.26395761611 L800 1211.8117300413733 L840 1222.9547641335387 L880 1232.2010072090231 L920 1239.142164840947 L960 1243.4717302725594 L1000 1244.998519103655 L1040 1243.6551115870277 L1080 1239.5008297411 L1120 1232.7191178157725 L1160 1223.609441784544 L1200 1212.5740655641064 L1240 1200.100287895422 L1280 1186.738924267839 L1320 1173.0799840786992 L1360 1159.7266170733396 L1400 1147.2684795352745 L1440 1136.2556963189509 L1480 1127.1745685063268 L1520 1120.426099385484 L1560 1116.3082869983846 L1600 1115.0029651812001 L1640 1116.5677741688767 L1680 1120.9336153249646 L1720 1127.9077023904267 L1760 1137.1820745147693 L1800 1148.347195152148 L1840 1160.9100363241228 L1880 1174.3158496864835 L1920 1187.972663036148 L1960 1201.2774205444864" fill="none" stroke="#854224" opacity=".3" stroke-width="2"/></svg>