<svg xmlns="http://www.w3.org/2000/svg" width="1920" height="1080" viewBox="0 0 1920 1080"><rect width="1920" height="1080" fill="#f7edea"/><path d="M-40 200 C 420 60 760 320 1180 150 C 1500 20 1800 180 1990 80" fill="none" stroke="#b98a86" stroke-width="9" opacity=".55"/><ellipse cx="0" cy="40" rx="7" ry="4" fill="#e7b7c6" opacity="0.45" transform="rotate(0 0 40)"/><ellipse cx="233" cy="351" rx="10" ry="5" fill="#e7b7c6" opacity="0.57" transform="rotate(37 233 351)"/><ellipse cx="466" cy="662" rx="13" ry="6" fill="#e7b7c6" opacity="0.69" transform="rotate(74 466 662)"/><ellipse cx="699" cy="973" rx="7" ry="4" fill="#e7b7c6" opacity="0.81" transform="rotate(111 699 973)"/><ellipse cx="932" cy="204" rx="10" ry="5" fill="#e7b7c6" opacity="0.45" transform="rotate(148 932 204)"/><ellipse cx="1165" cy="515" rx="13" ry="6" fill="#e7b7c6" opacity="0.57" transform="rotate(185 1165 515)"/><ellipse cx="1398" cy="826" rx="7" ry="4" fill="#e7b7c6" opacity="0.69" transform="rotate(222 1398 826)"/><ellipse cx="1631" cy="57" rx="10" ry="5" fill="#e7b7c6" opacity="0.81" transform="rotate(259 1631 57)"/><ellipse cx="1864" cy="368" rx="13" ry="6" fill="#e7b7c6" opacity="0.45" transform="rotate(296 1864 368)"/><ellipse cx="177" cy="679" rx="7" ry="4" fill="#e7b7c6" opacity="0.57" transform="rotate(333 177 679)"/><ellipse cx="410" cy="990" rx="10" ry="5" fill="#e7b7c6" opacity="0.69" transform="rotate(10 410 990)"/><ellipse cx="643" cy="221" rx="13" ry="6" fill="#e7b7c6" opacity="0.81" transform="rotate(47 643 221)"/><ellipse cx="876" cy="532" rx="7" ry="4" fill="#e7b7c6" opacity="0.45" transform="rotate(84 876 532)"/><ellipse cx="1109" cy="843" rx="10" ry="5" fill="#e7b7c6" opacity="0.57" transform="rotate(121 1109 843)"/><ellipse cx="1342" cy="74" rx="13" ry="6" fill="#e7b7c6" opacity="0.69" transform="rotate(158 1342 74)"/><ellipse cx="1575" cy="385" rx="7" ry="4" fill="#e7b7c6" opacity="0.81" transform="rotate(195 1575 385)"/><ellipse cx="1808" cy="696" rx="10" ry="5" fill="#e7b7c6" opacity="0.45" transform="rotate(232 1808 696)"/><ellipse cx="121" cy="1007" rx="13" ry="6" fill="#e7b7c6" opacity="0.57" transform="rotate(269 121 1007)"/><ellipse cx="354" cy="238" rx="7" ry="4" fill="#e7b7c6" opacity="0.69" transform="rotate(306 354 238)"/><ellipse cx="587" cy="549" rx="10" ry="5" fill="#e7b7c6" opacity="0.81" transform="rotate(343 587 549)"/><ellipse cx="820" cy="860" rx="13" ry="6" fill="#e7b7c6" opacity="0.45" transform="rotate(20 820 860)"/><ellipse cx="1053" cy="91" rx="7" ry="4" fill="#e7b7c6" opacity="0.57" transform="rotate(57 1053 91)"/><ellipse cx="1286" cy="402" rx="10" ry="5" fill="#e7b7c6" opacity="0.69" transform="rotate(94 1286 402)"/><ellipse cx="1519" cy="713" rx="13" ry="6" fill="#e7b7c6" opacity="0.81" transform="rotate(131 1519 713)"/><ellipse cx="1752" cy="1024" rx="7" ry="4" fill="#e7b7c6" opacity="0.45" transform="rotate(168 1752 1024)"/><ellipse cx="65" cy="255" rx="10" ry="5" fill="#e7b7c6" opacity="0.57" transform="rotate(205 65 255)"/><ellipse cx="298" cy="566" rx="13" ry="6" fill="#e7b7c6" opacity="0.69" transform="rotate(242 298 566)"/><ellipse cx="531" cy="877" rx="7" ry="4" fill="#e7b7c6" opacity="0.81" transform="rotate(279 531 877)"/><ellipse cx="764" cy="108" rx="10" ry="5" fill="#e7b7c6" opacity="0.45" transform="rotate(316 764 108)"/><ellipse cx="997" cy="419" rx="13" ry="6" fill="#e7b7c6" opacity="0.57" transform="rotate(353 997 419)"/><ellipse cx="1230" cy="730" rx="7" ry="4" fill="#e7b7c6" opacity="0.69" transform="rotate(30 1230 730)"/><ellipse cx="1463" cy="1041" rx="10" ry="5" fill="#e7b7c6" opacity="0.81" transform="rotate(67 1463 1041)"/><ellipse cx="1696" cy="272" rx="13" ry="6" fill="#e7b7c6" opacity="0.45" transform="rotate(104 1696 272)"/><ellipse cx="9" cy="583" rx="7" ry="4" fill="#e7b7c6" opacity="0.57" transform="rotate(141 9 583)"/><ellipse cx="242" cy="894" rx="10" ry="5" fill="#e7b7c6" opacity="0.69" transform="rotate(178 242 894)"/><ellipse cx="475" cy="125" rx="13" ry="6" fill="#e7b7c6" opacity="0.81" transform="rotate(215 475 125)"/><ellipse cx="708" cy="436" rx="7" ry="4" fill="#e7b7c6" opacity="0.45" transform="rotate(252 708 436)"/><ellipse cx="941" cy="747" rx="10" ry="5" fill="#e7b7c6" opacity="0.57" transform="rotate(289 941 747)"/><ellipse cx="1174" cy="1058" rx="13" ry="6" fill="#e7b7c6" opacity="0.69" transform="rotate(326 1174 1058)"/><ellipse cx="1407" cy="289" rx="7" ry="4" fill="#e7b7c6" opacity="0.81" transform="rotate(3 1407 289)"/><ellipse cx="1640" cy="600" rx="10" ry="5" fill="#e7b7c6" opacity="0.45" transform="rotate(40 1640 600)"/><ellipse cx="1873" cy="911" rx="13" ry="6" fill="#e7b7c6" opacity="0.57" transform="rotate(77 1873 911)"/><ellipse cx="186" cy="142" rx="7" ry="4" fill="#e7b7c6" opacity="0.69" transform="rotate(114 186 142)"/><ellipse cx="419" cy="453" rx="10" ry="5" fill="#e7b7c6" opacity="0.81" transform="rotate(151 419 453)"/><ellipse cx="652" cy="764" rx="13" ry="6" fill="#e7b7c6" opacity="0.45" transform="rotate(188 652 764)"/><ellipse cx="885" cy="1075" rx="7" ry="4" fill="#e7b7c6" opacity="0.57" transform="rotate(225 885 1075)"/><ellipse cx="1118" cy="306" rx="10" ry="5" fill="#e7b7c6" opacity="0.69" transform="rotate(262 1118 306)"/><ellipse cx="1351" cy="617" rx="13" ry="6" fill="#e7b7c6" opacity="0.81" transform="rotate(299 1351 617)"/><ellipse cx="1584" cy="928" rx="7" ry="4" fill="#e7b7c6" opacity="0.45" transform="rotate(336 1584 928)"/><ellipse cx="1817" cy="159" rx="10" ry="5" fill="#e7b7c6" opacity="0.57" transform="rotate(13 1817 159)"/><ellipse cx="130" cy="470" rx="13" ry="6" fill="#e7b7c6" opacity="0.69" transform="rotate(50 130 470)"/><ellipse cx="363" cy="781" rx="7" ry="4" fill="#e7b7c6" opacity="0.81" transform="rotate(87 363 781)"/><ellipse cx="596" cy="12" rx="10" ry="5" fill="#e7b7c6" opacity="0.45" transform="rotate(124 596 12)"/><ellipse cx="829" cy="323" rx="13" ry="6" fill="#e7b7c6" opacity="0.57" transform="rotate(161 829 323)"/><ellipse cx="1062" cy="634" rx="7" ry="4" fill="#e7b7c6" opacity="0.69" transform="rotate(198 1062 634)"/><ellipse cx="1295" cy="945" rx="10" ry="5" fill="#e7b7c6" opacity="0.81" transform="rotate(235 1295 945)"/><ellipse cx="1528" cy="176" rx="13" ry="6" fill="#e7b7c6" opacity="0.45" transform="rotate(272 1528 176)"/><ellipse cx="1761" cy="487" rx="7" ry="4" fill="#e7b7c6" opacity="0.57" transform="rotate(309 1761 487)"/><ellipse cx="74" cy="798" rx="10" ry="5" fill="#e7b7c6" opacity="0.69" transform="rotate(346 74 798)"/><ellipse cx="307" cy="29" rx="13" ry="6" fill="#e7b7c6" opacity="0.81" transform="rotate(23 307 29)"/><ellipse cx="540" cy="340" rx="7" ry="4" fill="#e7b7c6" opacity="0.45" transform="rotate(60 540 340)"/><ellipse cx="773" cy="651" rx="10" ry="5" fill="#e7b7c6" opacity="0.57" transform="rotate(97 773 651)"/><ellipse cx="1006" cy="962" rx="13" ry="6" fill="#e7b7c6" opacity="0.69" transform="rotate(134 1006 962)"/><ellipse cx="1239" cy="193" rx="7" ry="4" fill="#e7b7c6" opacity="0.81" transform="rotate(171 1239 193)"/><ellipse cx="1472" cy="504" rx="10" ry="5" fill="#e7b7c6" opacity="0.45" transform="rotate(208 1472 504)"/><ellipse cx="1705" cy="815" rx="13" ry="6" fill="#e7b7c6" opacity="0.57" transform="rotate(245 1705 815)"/><ellipse cx="18" cy="46" rx="7" ry="4" fill="#e7b7c6" opacity="0.69" transform="rotate(282 18 46)"/><ellipse cx="251" cy="357" rx="10" ry="5" fill="#e7b7c6" opacity="0.81" transform="rotate(319 251 357)"/><ellipse cx="484" cy="668" rx="13" ry="6" fill="#e7b7c6" opacity="0.45" transform="rotate(356 484 668)"/><ellipse cx="717" cy="979" rx="7" ry="4" fill="#e7b7c6" opacity="0.57" transform="rotate(33 717 979)"/><ellipse cx="950" cy="210" rx="10" ry="5" fill="#e7b7c6" opacity="0.69" transform="rotate(70 950 210)"/><ellipse cx="1183" cy="521" rx="13" ry="6" fill="#e7b7c6" opacity="0.81" transform="rotate(107 1183 521)"/><ellipse cx="1416" cy="832" rx="7" ry="4" fill="#e7b7c6" opacity="0.45" transform="rotate(144 1416 832)"/><ellipse cx="1649" cy="63" rx="10" ry="5" fill="#e7b7c6" opacity="0.57" transform="rotate(181 1649 63)"/><ellipse cx="1882" cy="374" rx="13" ry="6" fill="#e7b7c6" opacity="0.69" transform="rotate(218 1882 374)"/><ellipse cx="195" cy="685" rx="7" ry="4" fill="#e7b7c6" opacity="0.81" transform="rotate(255 195 685)"/><ellipse cx="428" cy="996" rx="10" ry="5" fill="#e7b7c6" opacity="0.45" transform="rotate(292 428 996)"/><ellipse cx="661" cy="227" rx="13" ry="6" fill="#e7b7c6" opacity="0.57" transform="rotate(329 661 227)"/><ellipse cx="894" cy="538" rx="7" ry="4" fill="#e7b7c6" opacity="0.69" transform="rotate(6 894 538)"/><ellipse cx="1127" cy="849" rx="10" ry="5" fill="#e7b7c6" opacity="0.81" transform="rotate(43 1127 849)"/><ellipse cx="1360" cy="80" rx="13" ry="6" fill="#e7b7c6" opacity="0.45" transform="rotate(80 1360 80)"/><ellipse cx="1593" cy="391" rx="7" ry="4" fill="#e7b7c6" opacity="0.57" transform="rotate(117 1593 391)"/><ellipse cx="1826" cy="702" rx="10" ry="5" fill="#e7b7c6" opacity="0.69" transform="rotate(154 1826 702)"/><ellipse cx="139" cy="1013" rx="13" ry="6" fill="#e7b7c6" opacity="0.81" transform="rotate(191 139 1013)"/><ellipse cx="372" cy="244" rx="7" ry="4" fill="#e7b7c6" opacity="0.45" transform="rotate(228 372 244)"/><ellipse cx="605" cy="555" rx="10" ry="5" fill="#e7b7c6" opacity="0.57" transform="rotate(265 605 555)"/><ellipse cx="838" cy="866" rx="13" ry="6" fill="#e7b7c6" opacity="0.69" transform="rotate(302 838 866)"/><ellipse cx="1071" cy="97" rx="7" ry="4" fill="#e7b7c6" opacity="0.81" transform="rotate(339 1071 97)"/><ellipse cx="1304" cy="408" rx="10" ry="5" fill="#e7b7c6" opacity="0.45" transform="rotate(16 1304 408)"/><ellipse cx="1537" cy="719" rx="13" ry="6" fill="#e7b7c6" opacity="0.57" transform="rotate(53 1537 719)"/><ellipse cx="1770" cy="1030" rx="7" ry="4" fill="#e7b7c6" opacity="0.69" transform="rotate(90 1770 1030)"/><ellipse cx="83" cy="261" rx="10" ry="5" fill="#e7b7c6" opacity="0.81" transform="rotate(127 83 261)"/><ellipse cx="316" cy="572" rx="13" ry="6" fill="#e7b7c6" opacity="0.45" transform="rotate(164 316 572)"/><ellipse cx="549" cy="883" rx="7" ry="4" fill="#e7b7c6" opacity="0.57" transform="rotate(201 549 883)"/><ellipse cx="782" cy="114" rx="10" ry="5" fill="#e7b7c6" opacity="0.69" transform="rotate(238 782 114)"/><ellipse cx="1015" cy="425" rx="13" ry="6" fill="#e7b7c6" opacity="0.81" transform="rotate(275 1015 425)"/><ellipse cx="1248" cy="736" rx="7" ry="4" fill="#e7b7c6" opacity="0.45" transform="rotate(312 1248 736)"/><ellipse cx="1481" cy="1047" rx="10" ry="5" fill="#e7b7c6" opacity="0.57" transform="rotate(349 1481 1047)"/><ellipse cx="1714" cy="278" rx="13" ry="6" fill="#e7b7c6" opacity="0.69" transform="rotate(26 1714 278)"/><ellipse cx="27" cy="589" rx="7" ry="4" fill="#e7b7c6" opacity="0.81" transform="rotate(63 27 589)"/><ellipse cx="260" cy="900" rx="10" ry="5" fill="#e7b7c6" opacity="0.45" transform="rotate(100 260 900)"/><ellipse cx="493" cy="131" rx="13" ry="6" fill="#e7b7c6" opacity="0.57" transform="rotate(137 493 131)"/><ellipse cx="726" cy="442" rx="7" ry="4" fill="#e7b7c6" opacity="0.69" transform="rotate(174 726 442)"/><ellipse cx="959" cy="753" rx="10" ry="5" fill="#e7b7c6" opacity="0.81" transform="rotate(211 959 753)"/><ellipse cx="1192" cy="1064" rx="13" ry="6" fill="#e7b7c6" opacity="0.45" transform="rotate(248 1192 1064)"/><ellipse cx="1425" cy="295" rx="7" ry="4" fill="#e7b7c6" opacity="0.57" transform="rotate(285 1425 295)"/><ellipse cx="1658" cy="606" rx="10" ry="5" fill="#e7b7c6" opacity="0.69" transform="rotate(322 1658 606)"/><ellipse cx="1891" cy="917" rx="13" ry="6" fill="#e7b7c6" opacity="0.81" transform="rotate(359 1891 917)"/><ellipse cx="204" cy="148" rx="7" ry="4" fill="#e7b7c6" opacity="0.45" transform="rotate(36 204 148)"/><ellipse cx="437" cy="459" rx="10" ry="5" fill="#e7b7c6" opacity="0.57" transform="rotate(73 437 459)"/><ellipse cx="670" cy="770" rx="13" ry="6" fill="#e7b7c6" opacity="0.69" transform="rotate(110 670 770)"/><ellipse cx="903" cy="1" rx="7" ry="4" fill="#e7b7c6" opacity="0.81" transform="rotate(147 903 1)"/><ellipse cx="1136" cy="312" rx="10" ry="5" fill="#e7b7c6" opacity="0.45" transform="rotate(184 1136 312)"/><ellipse cx="1369" cy="623" rx="13" ry="6" fill="#e7b7c6" opacity="0.57" transform="rotate(221 1369 623)"/><ellipse cx="1602" cy="934" rx="7" ry="4" fill="#e7b7c6" opacity="0.69" transform="rotate(258 1602 934)"/><ellipse cx="1835" cy="165" rx="10" ry="5" fill="#e7b7c6" opacity="0.81" transform="rotate(295 1835 165)"/><ellipse cx="148" cy="476" rx="13" ry="6" fill="#e7b7c6" opacity="0.45" transform="rotate(332 148 476)"/><ellipse cx="381" cy="787" rx="7" ry="4" fill="#e7b7c6" opacity="0.57" transform="rotate(9 381 787)"/><ellipse cx="614" cy="18" rx="10" ry="5" fill="#e7b7c6" opacity="0.69" transform="rotate(46 614 18)"/><ellipse cx="847" cy="329" rx="13" ry="6" fill="#e7b7c6" opacity="0.81" transform="rotate(83 847 329)"/><ellipse cx="1080" cy="640" rx="7" ry="4" fill="#e7b7c6" opacity="0.45" transform="rotate(120 1080 640)"/><ellipse cx="1313" cy="951" rx="10" ry="5" fill="#e7b7c6" opacity="0.57" transform="rotate(157 1313 951)"/><ellipse cx="1546" cy="182" rx="13" ry="6" fill="#e7b7c6" opacity="0.69" transform="rotate(194 1546 182)"/><ellipse cx="1779" cy="493" rx="7" ry="4" fill="#e7b7c6" opacity="0.81" transform="rotate(231 1779 493)"/><ellipse cx="92" cy="804" rx="10" ry="5" fill="#e7b7c6" opacity="0.45" transform="rotate(268 92 804)"/><ellipse cx="325" cy="35" rx="13" ry="6" fill="#e7b7c6" opacity="0.57" transform="rotate(305 325 35)"/><ellipse cx="558" cy="346" rx="7" ry="4" fill="#e7b7c6" opacity="0.69" transform="rotate(342 558 346)"/><ellipse cx="791" cy="657" rx="10" ry="5" fill="#e7b7c6" opacity="0.81" transform="rotate(19 791 657)"/><ellipse cx="1024" cy="968" rx="13" ry="6" fill="#e7b7c6" opacity="0.45" transform="rotate(56 1024 968)"/><ellipse cx="1257" cy="199" rx="7" ry="4" fill="#e7b7c6" opacity="0.57" transform="rotate(93 1257 199)"/><circle cx="1520" cy="300" r="150" fill="none" stroke="#c24b6b" stroke-width="2" opacity=".3"/><text x="1450" y="308" fill="#c24b6b" opacity=".55" font-family="serif" font-size="34">SAKURA</text></svg>